<svg xmlns="http://www.w3.org/2000/svg" version="1.1" xmlns:xlink="http://www.w3.org/1999/xlink" xmlns:svgjs="http://svgjs.dev/svgjs" width="128" height="128" viewBox="0 0 128 128"><g transform="matrix(0.8046875,0,0,0.8046875,12.760752631578946,19.924647044037968)"><svg viewBox="0 0 95 81" data-background-color="#dedede" preserveAspectRatio="xMidYMid meet" height="109" width="128" xmlns="http://www.w3.org/2000/svg" xmlns:xlink="http://www.w3.org/1999/xlink"><g id="tight-bounds" transform="matrix(1,0,0,1,-0.24049999999999727,0.20306042998257112)"><svg viewBox="0 0 95.481 80.59387914003486" height="80.59387914003486" width="95.481"><g><svg viewBox="0 0 95.481 80.59387914003486" height="80.59387914003486" width="95.481"><g><svg viewBox="0 0 95.481 80.59387914003486" height="80.59387914003486" width="95.481"><g id="textblocktransform"><svg viewBox="0 0 95.481 80.59387914003486" height="80.59387914003486" width="95.481" id="textblock"><g><svg viewBox="0 0 95.481 80.59387914003486" height="80.59387914003486" width="95.481"><g><svg viewBox="0 0 95.481 80.59387914003486" height="80.59387914003486" width="95.481"><g><svg xmlns="http://www.w3.org/2000/svg" xmlns:xlink="http://www.w3.org/1999/xlink" xml:space="preserve" version="1.1" style="shape-rendering:geometricPrecision;text-rendering:geometricPrecision;image-rendering:optimizeQuality;" viewBox="11.77000000000001 35.92 309.78 261.47999999999996" x="0" y="0" fill-rule="evenodd" clip-rule="evenodd" height="80.59387914003486" width="95.481" class="icon-icon-0" data-fill-palette-color="accent" id="icon-0"><g fill="#ffffff" data-fill-palette-color="accent"><path class="" d="M278.01 62.72l11.68 13.75c19.87 23.39 31.86 53.69 31.86 86.78 0 74.07-60.07 134.15-134.15 134.15-32.81 0-64.23-11.89-88.81-33.62l-5.35-4.72c-16.08 1.8-30.33 1.7-40.91-1.28-21.9-6.17-27.05-14.21-40.56-30.12 7.17 8.21 18.03 13.31 28.88 16.37 10.57 2.98 24.82 3.08 40.91 1.28l5.34 4.72c24.58 21.73 56 33.62 88.81 33.62 74.07 0 134.15-60.08 134.15-134.15 0-37.63-32.03-86.98-31.86-86.78z m-102.29-26.8c62.72 0 113.58 50.86 113.58 113.58 0 62.72-50.86 113.57-113.58 113.57-28.83 0-55.16-10.76-75.19-28.46 5.22-0.97 10.54-2.06 15.93-3.27 8.51 6.18 18.04 11.06 28.26 14.36-4.43-5.52-8.14-11.82-11.24-18.46 4.1-1.06 8.22-2.17 12.34-3.32 5.6 11.41 13.46 22.13 23.63 25.56l0-32.65c4.2-1.34 8.39-2.72 12.53-4.13l0 36.78c16.37-5.53 26.76-29.93 31.37-45.7-3.5 0.61-7.09 1.13-10.74 1.57 3.91-1.46 7.75-2.93 11.52-4.41l8.26 15.48c-3.8 10.54-8.91 20.81-15.69 29.27 8.91-2.87 17.26-6.94 24.89-12.01l0.31 0.58 0.51-1.14c18.44-12.52 32.52-30.98 39.48-52.63-6.35 5.1-13.74 9.24-21.5 12.61l8.32-18.51c7.87-5.02 14.42-11.29 16.97-18.83l-8.5 0 5.63-12.53 2.87 0c-0.38-1.12-0.85-2.21-1.4-3.28l7.13-15.88-32.24-4.92c-6.66-3.19-13.49-5.61-19.2-7.28 0.26 1.47 0.5 2.96 0.72 4.46l-13-1.98c-0.33-1.95-0.69-3.88-1.08-5.77-10.72-2.19-22.39-3.54-34.67-3.89l0 4.2-12.53-1.91 0-2.29c-12.27 0.34-23.95 1.7-34.67 3.89-2.19 10.72-3.54 22.39-3.88 34.67l38.55 0 0-26.03 12.53 23.48 0 0.25c-11.13 5.12-22.35 10.07-33.65 14.83l-17.44 0c0.06 2.37 0.17 4.72 0.31 7.04l-0.32 0.13c-3.9 1.56-7.88 3.13-11.91 4.68-0.31-3.89-0.52-7.84-0.63-11.85l-42.63 0c2.83 8.35 10.56 15.15 19.56 20.41-5.11 1.69-10.24 3.26-15.34 4.67l-0.43-0.34 0.14 0.42c-3.09 0.84-6.17 1.63-9.23 2.33l-2.96 0.68c-3.45-10.86-5.32-22.43-5.32-34.43 0-62.72 50.86-113.58 113.58-113.58z m-115.64 130.8c-3.11 3.61-26.36 28.97-12.18 31.42 26.78 4.61 110.81-31.98 151.83-51.37l-12.93-24.22 76.07 11.61-31.94 71.09-10.92-20.47c-40.91 16.92-138.93 49.24-173.79 39.43-49.61-13.97-2.84-48.22 13.85-57.5z m15.65-23.49l42.63 0c0.3-10.94 1.35-21.48 3.07-31.37-15.77 4.61-40.17 15-45.7 31.37z m106.26-93.72l0 42.63c10.94 0.3 21.48 1.35 31.37 3.07-4.61-15.77-15-40.17-31.37-45.7z m-12.53 42.63l0-42.63c-16.37 5.53-26.76 29.93-31.37 45.7 9.9-1.71 20.43-2.77 31.37-3.07z m-89.94 26.36c12.61-10.12 29.28-16.5 44.81-20.39 3.89-15.53 10.28-32.2 20.39-44.81-30.87 9.94-55.26 34.32-65.2 65.2z m147.59-20.39c15.53 3.9 32.2 10.28 44.81 20.39-9.94-30.88-34.33-55.26-65.2-65.2 10.12 12.6 16.5 29.28 20.39 44.81z" fill="#888888" data-fill-palette-color="accent"></path></g></svg></g></svg></g></svg></g></svg></g></svg></g></svg></g><defs></defs></svg><rect width="95.481" height="80.59387914003486" fill="none" stroke="none" visibility="hidden"></rect></g></svg></g></svg>